<svg xmlns="http://www.w3.org/2000/svg" width="512" height="512" viewBox="0 0 512 512" version="1.1"><path d="" stroke="none" fill="#FFF" fill-rule="evenodd"/><path d="M 287 45.569 C 282.949 47.447, 278.441 51.218, 269.887 59.886 C 260.136 69.767, 257.916 72.604, 256.046 77.577 C 253.156 85.262, 253.525 93.721, 257.038 100.338 C 258.682 103.434, 277.724 123.422, 314.341 160.488 L 369.181 216 195.841 216.006 C 79.515 216.009, 21.275 216.351, 18.775 217.046 C 13.490 218.513, 7.048 223.753, 3.521 229.452 L 0.500 234.336 0.172 253.175 C -0.102 268.917, 0.126 272.863, 1.559 277.178 C 3.727 283.705, 9.975 290.590, 16.500 293.642 L 21.500 295.980 195.750 295.990 C 291.588 295.996, 370 296.226, 370 296.502 C 370 296.778, 345.052 321.866, 314.561 352.252 C 274.882 391.793, 258.497 408.771, 256.928 411.971 C 253.637 418.678, 253.300 427.171, 256.037 434.423 C 257.912 439.388, 260.151 442.249, 269.887 452.114 C 283.657 466.068, 288.685 468.980, 299 468.980 C 312.060 468.980, 306.290 474.115, 411.702 368.702 C 493.541 286.863, 507.254 272.739, 509.394 268.079 L 511.884 262.658 512.257 268.079 C 512.462 271.061, 512.625 264.950, 512.619 254.500 C 512.613 244.050, 512.449 238.622, 512.254 242.439 L 511.900 249.378 509.402 243.939 C 507.252 239.255, 493.681 225.276, 411.702 143.298 C 306.290 37.885, 312.060 43.020, 299 43.020 C 294.138 43.020, 291.114 43.662, 287 45.569 M 0.417 255.500 C 0.418 265.950, 0.566 270.089, 0.746 264.698 C 0.926 259.307, 0.925 250.757, 0.744 245.698 C 0.563 240.639, 0.416 245.050, 0.417 255.500" stroke="none" fill="#FFF" fill-rule="evenodd"/></svg>