<svg xmlns="http://www.w3.org/2000/svg" width="512" height="512" viewBox="0 0 512 512" version="1.1"><path d="" stroke="none" fill="#FFF" fill-rule="evenodd"/><path d="M 213 36.626 C 211.625 36.884, 208.025 38.040, 205 39.194 C 199.912 41.134, 192.285 48.493, 103.212 137.396 C 49.751 190.756, 5.914 235.295, 4.652 237.536 C 1.085 243.872, -0.267 250.136, 0.194 258.187 C 1.045 273.051, -5.228 265.935, 99.907 371.297 C 151.933 423.436, 196.848 467.662, 199.717 469.579 C 207.383 474.699, 216.403 476.681, 225.184 475.175 C 228.978 474.525, 234.210 472.914, 236.811 471.596 C 249.759 465.034, 257.762 448.540, 255.015 434.073 C 252.542 421.045, 253.171 421.785, 194.199 362.668 C 164.114 332.511, 136.772 305.869, 133.438 303.465 C 130.104 301.060, 124.490 297.728, 120.962 296.060 L 114.548 293.026 299.524 292.763 L 484.500 292.500 490.478 289.569 C 498.265 285.752, 505.469 278.473, 508.623 271.236 C 509.998 268.081, 511.545 264.719, 512.061 263.764 C 513.351 261.378, 513.296 246.699, 512 247.500 C 511.450 247.840, 510.996 247.529, 510.990 246.809 C 510.967 243.728, 505.783 234.731, 501.651 230.598 C 496.409 225.357, 489.614 221.697, 482.201 220.124 C 478.392 219.316, 426.223 218.993, 296.701 218.974 L 116.500 218.947 123.710 215.120 C 127.676 213.015, 133.976 208.782, 137.710 205.714 C 141.445 202.645, 167.945 176.592, 196.600 147.818 C 253.165 91.016, 252.938 91.287, 255.061 78.105 C 257.740 61.466, 248.491 44.978, 233.118 38.988 C 227.598 36.836, 217.922 35.701, 213 36.626 M 0.349 256 C 0.349 260.675, 0.522 262.587, 0.732 260.250 C 0.943 257.913, 0.943 254.088, 0.732 251.750 C 0.522 249.412, 0.349 251.325, 0.349 256" stroke="none" fill="#FFF" fill-rule="evenodd"/></svg>