<?xml version="1.0" encoding="UTF-8"?>
<!DOCTYPE svg PUBLIC "-//W3C//DTD SVG 1.1//EN" "http://www.w3.org/Graphics/SVG/1.1/DTD/svg11.dtd">
<svg xmlns="http://www.w3.org/2000/svg" version="1.1" width="50px" height="50px" style="shape-rendering:geometricPrecision; text-rendering:geometricPrecision; image-rendering:optimizeQuality; fill-rule:evenodd; clip-rule:evenodd" xmlns:xlink="http://www.w3.org/1999/xlink">
<g><path style="opacity:1" fill="#fff" d="M 6.5,1.5 C 18.5,1.5 30.5,1.5 42.5,1.5C 42.5,16.8333 42.5,32.1667 42.5,47.5C 30.5,47.5 18.5,47.5 6.5,47.5C 6.5,32.1667 6.5,16.8333 6.5,1.5 Z M 8.5,3.5 C 19.1667,3.5 29.8333,3.5 40.5,3.5C 40.5,17.5 40.5,31.5 40.5,45.5C 29.8333,45.5 19.1667,45.5 8.5,45.5C 8.5,31.5 8.5,17.5 8.5,3.5 Z"/></g>
<g><path style="opacity:0.734" fill="#fff" d="M 14.5,7.5 C 16.1667,7.5 17.8333,7.5 19.5,7.5C 19.7564,9.7925 19.4231,11.9592 18.5,14C 22.6125,16.3331 22.1125,17.4998 17,17.5C 11.8875,17.4998 11.3875,16.3331 15.5,14C 14.5769,11.9592 14.2436,9.7925 14.5,7.5 Z"/></g>
<g><path style="opacity:0.881" fill="#fff" d="M 25.5,9.5 C 29.226,9.17744 32.8927,9.51078 36.5,10.5C 34.6667,10.8333 32.8333,11.1667 31,11.5C 28.7047,11.4535 26.8714,10.7868 25.5,9.5 Z"/></g>
<g><path style="opacity:0.881" fill="#fff" d="M 25.5,14.5 C 29.226,14.1774 32.8927,14.5108 36.5,15.5C 34.6667,15.8333 32.8333,16.1667 31,16.5C 28.7047,16.4535 26.8714,15.7868 25.5,14.5 Z"/></g>
<g><path style="opacity:0.923" fill="#fff" d="M 11.5,24.5 C 17.2055,24.1712 22.8722,24.5046 28.5,25.5C 25.6667,25.8333 22.8333,26.1667 20,26.5C 16.7485,26.4809 13.9151,25.8142 11.5,24.5 Z"/></g>
<g><path style="opacity:0.781" fill="#fff" d="M 30.5,24.5 C 32.604,24.2011 34.604,24.5344 36.5,25.5C 35.5,25.8333 34.5,26.1667 33.5,26.5C 31.9704,26.3601 30.9704,25.6935 30.5,24.5 Z"/></g>
<g><path style="opacity:0.906" fill="#fff" d="M 11.5,30.5 C 16.2137,30.1734 20.8804,30.5067 25.5,31.5C 23.1667,31.8333 20.8333,32.1667 18.5,32.5C 15.7305,32.4714 13.3972,31.8048 11.5,30.5 Z"/></g>
<g><path style="opacity:0.781" fill="#fff" d="M 30.5,30.5 C 32.604,30.2011 34.604,30.5344 36.5,31.5C 35.5,31.8333 34.5,32.1667 33.5,32.5C 31.9704,32.3601 30.9704,31.6935 30.5,30.5 Z"/></g>
<g><path style="opacity:0.923" fill="#fff" d="M 11.5,36.5 C 17.2055,36.1712 22.8722,36.5046 28.5,37.5C 25.6667,37.8333 22.8333,38.1667 20,38.5C 16.7485,38.4809 13.9151,37.8142 11.5,36.5 Z"/></g>
<g><path style="opacity:0.781" fill="#fff" d="M 30.5,36.5 C 32.604,36.2011 34.604,36.5344 36.5,37.5C 35.5,37.8333 34.5,38.1667 33.5,38.5C 31.9704,38.3601 30.9704,37.6935 30.5,36.5 Z"/></g>
</svg>
