<svg xmlns="http://www.w3.org/2000/svg" width="200" height="73" viewBox="0 0 200 73" version="1.1"><path d="M 88.302 2.046 C 73.118 8.049, 64.212 25.206, 67.070 42.951 C 68.579 52.325, 71.505 58.242, 77.378 63.796 C 88.202 74.033, 104.323 76.020, 115.426 68.486 C 119.939 65.423, 120 65.423, 120 68.500 C 120 70.929, 120.200 71, 127 71 L 134 71 134 51.473 L 134 31.945 119.750 32.223 L 105.500 32.500 105.202 38.202 C 104.957 42.866, 105.276 44.276, 106.952 45.952 C 108.078 47.078, 110.125 48, 111.500 48 C 114.563 48, 114.683 49.286, 111.865 51.911 C 107.768 55.728, 100.283 55.718, 94.864 51.889 C 86.550 46.014, 87.236 24.032, 95.872 19.566 C 101.932 16.432, 109.811 18.680, 111.508 24.026 C 112.079 25.825, 113.059 26, 122.567 26 C 134.471 26, 134.593 25.882, 131.099 17.730 C 128.453 11.559, 123.583 6.337, 117.590 3.247 C 110.484 -0.417, 96.032 -1.010, 88.302 2.046 M 154.346 2.086 C 140.309 7.484, 134.741 24.947, 144.009 34.510 C 147.733 38.352, 151.039 39.870, 164.521 43.928 C 176.733 47.604, 178.530 48.752, 177.638 52.307 C 176.205 58.017, 162.749 58.133, 160.163 52.458 C 159.523 51.054, 159 49.252, 159 48.453 C 159 47.270, 156.953 47, 148 47 L 137 47 137.009 50.750 C 137.023 56.290, 141.997 64.328, 147.352 67.466 C 154.604 71.716, 161.501 73.286, 170.498 72.734 C 184.778 71.858, 195.305 66.372, 198.197 58.297 L 199.500 54.660 200.067 62.580 C 200.378 66.936, 200.613 54.525, 200.587 35 C 200.562 15.475, 200.410 9.376, 200.250 21.447 C 199.961 43.323, 199.954 43.383, 198.146 39.947 C 195.498 34.915, 188.452 30.596, 178.836 28.111 C 166.132 24.827, 161.551 22.797, 161.189 20.288 C 160.769 17.379, 164.258 15.637, 169.183 16.298 C 173.747 16.910, 176 18.505, 176 21.122 C 176 22.840, 176.895 23, 186.500 23 L 197 23 196.978 20.250 C 196.917 12.615, 189.611 4.150, 180.833 1.543 C 173.451 -0.649, 160.784 -0.389, 154.346 2.086 M 1 35.905 L 1 71 23.750 70.990 C 45.560 70.981, 46.707 70.883, 51.500 68.623 C 57.321 65.877, 60.296 62.929, 62.452 57.768 C 65.787 49.788, 62.962 38.813, 56.463 34.502 L 53.427 32.487 56.583 29.345 C 60.360 25.585, 61.507 20.621, 59.953 14.765 C 58.609 9.702, 55.942 6.573, 50.500 3.676 C 46.828 1.722, 44.637 1.517, 23.750 1.179 L 1 0.810 1 35.905 M 22 23.500 L 22 28 29.300 28 C 37.301 28, 39 27.108, 39 22.907 C 39 19.537, 37.613 19, 28.918 19 L 22 19 22 23.500 M 22 48.103 L 22 54.205 30.581 53.853 C 37.668 53.561, 39.408 53.162, 40.581 51.559 C 42.548 48.869, 42.355 46.355, 40 44 C 38.333 42.333, 36.667 42, 30 42 L 22 42 22 48.103" stroke="none" fill="#1c63dd" fill-rule="evenodd"/></svg>