<?xml version="1.0" encoding="UTF-8"?>
<!DOCTYPE svg PUBLIC "-//W3C//DTD SVG 1.1//EN" "http://www.w3.org/Graphics/SVG/1.1/DTD/svg11.dtd">
<svg xmlns="http://www.w3.org/2000/svg" version="1.1" width="50px" height="50px" style="shape-rendering:geometricPrecision; text-rendering:geometricPrecision; image-rendering:optimizeQuality; fill-rule:evenodd; clip-rule:evenodd" xmlns:xlink="http://www.w3.org/1999/xlink">
<g><path style="opacity:0.932" fill="#fff" d="M -0.5,33.5 C -0.5,23.5 -0.5,13.5 -0.5,3.5C 3.20791,0.564476 6.54124,0.897809 9.5,4.5C 20.1459,5.4987 30.8126,5.83203 41.5,5.5C 41.5,15.5 41.5,25.5 41.5,35.5C 28.1625,35.6666 14.8292,35.4999 1.5,35C 0.955796,34.2828 0.28913,33.7828 -0.5,33.5 Z M 2.5,4.5 C 4.45101,4.22672 5.95101,4.89339 7,6.5C 7.49954,12.8246 7.66621,19.1579 7.5,25.5C 5.5,25.5 3.5,25.5 1.5,25.5C 1.23998,18.443 1.57331,11.443 2.5,4.5 Z M 9.5,7.5 C 19.5,7.5 29.5,7.5 39.5,7.5C 39.5,16.1667 39.5,24.8333 39.5,33.5C 27.8286,33.6665 16.1619,33.4999 4.5,33C 2.89339,31.951 2.22672,30.451 2.5,28.5C 4.92937,28.8844 7.26271,29.551 9.5,30.5C 9.5,22.8333 9.5,15.1667 9.5,7.5 Z"/></g>
<g><path style="opacity:0.971" fill="#fff" d="M 42.5,9.5 C 43.5,9.5 44.5,9.5 45.5,9.5C 45.5,19.5 45.5,29.5 45.5,39.5C 32.1625,39.6666 18.8292,39.4999 5.5,39C 4.09773,37.6575 4.43107,36.8242 6.5,36.5C 18.8022,37.461 31.1356,37.7943 43.5,37.5C 43.7799,28.1136 43.4466,18.7803 42.5,9.5 Z"/></g>
<g><path style="opacity:0.651" fill="#fff" d="M 28.5,13.5 C 30.2646,12.5386 32.2646,12.2053 34.5,12.5C 34.6621,14.5273 34.4955,16.5273 34,18.5C 33.586,18.0426 33.086,17.7093 32.5,17.5C 30.3428,19.4121 28.0094,21.0787 25.5,22.5C 23.8333,21.1667 22.1667,19.8333 20.5,18.5C 18.5171,19.982 16.6837,21.6487 15,23.5C 14.1667,22.6667 13.3333,21.8333 12.5,21C 15.0159,18.3167 17.6826,15.8167 20.5,13.5C 21.8333,15.5 23.5,17.1667 25.5,18.5C 28.1183,17.3303 29.1183,15.6636 28.5,13.5 Z"/></g>
<g><path style="opacity:0.971" fill="#fff" d="M 49.5,13.5 C 49.5,23.5 49.5,33.5 49.5,43.5C 36.1625,43.6666 22.8292,43.4999 9.5,43C 8.09773,41.6575 8.43107,40.8242 10.5,40.5C 22.8022,41.461 35.1356,41.7943 47.5,41.5C 47.8056,32.4458 47.4722,23.4458 46.5,14.5C 47.325,13.6143 48.325,13.281 49.5,13.5 Z"/></g>
<g><path style="opacity:1" fill="#fff" d="M 13.5,26.5 C 20.5316,26.1697 27.5316,26.503 34.5,27.5C 31,27.8333 27.5,28.1667 24,28.5C 20.0982,28.4877 16.5982,27.821 13.5,26.5 Z"/></g>
</svg>
