<?xml version="1.0" encoding="UTF-8"?>
<!DOCTYPE svg PUBLIC "-//W3C//DTD SVG 1.1//EN" "http://www.w3.org/Graphics/SVG/1.1/DTD/svg11.dtd">
<svg xmlns="http://www.w3.org/2000/svg" version="1.1" width="32px" height="32px" style="shape-rendering:geometricPrecision; text-rendering:geometricPrecision; image-rendering:optimizeQuality; fill-rule:evenodd; clip-rule:evenodd" xmlns:xlink="http://www.w3.org/1999/xlink">
<g><path style="opacity:0.656" fill="#fff" d="M 12.5,1.5 C 14.5273,1.33788 16.5273,1.50454 18.5,2C 21.3093,3.74111 24.3093,4.90777 27.5,5.5C 27.5,6.83333 27.5,8.16667 27.5,9.5C 23.5113,10.8256 19.5113,12.159 15.5,13.5C 11.4887,12.159 7.48874,10.8256 3.5,9.5C 3.5,8.16667 3.5,6.83333 3.5,5.5C 6.91219,4.95793 9.91219,3.6246 12.5,1.5 Z M 13.5,4.5 C 24.1379,6.67647 24.1379,8.5098 13.5,10C 11.9984,9.41692 10.6651,8.58359 9.5,7.5C 10.9014,6.47934 12.2347,5.47934 13.5,4.5 Z"/></g>
<g><path style="opacity:0.778" fill="#fff" d="M 1.5,10.5 C 5.91899,11.5421 10.2523,12.8755 14.5,14.5C 14.5,19.5 14.5,24.5 14.5,29.5C 10.081,28.4579 5.74768,27.1245 1.5,25.5C 1.5,20.5 1.5,15.5 1.5,10.5 Z M 3.5,13.5 C 6.14011,14.8201 8.80678,16.1534 11.5,17.5C 12.6548,20.4459 12.8214,23.4459 12,26.5C 9.57937,25.0394 7.07937,23.7061 4.5,22.5C 3.51592,19.5719 3.18259,16.5719 3.5,13.5 Z"/></g>
<g><path style="opacity:0.778" fill="#fff" d="M 25.5,10.5 C 26.8333,10.5 28.1667,10.5 29.5,10.5C 29.5,15.5 29.5,20.5 29.5,25.5C 25.2523,27.1245 20.919,28.4579 16.5,29.5C 16.5,24.5 16.5,19.5 16.5,14.5C 19.9122,13.9579 22.9122,12.6246 25.5,10.5 Z M 26.5,13.5 C 27.8032,16.3553 27.8032,19.3553 26.5,22.5C 23.9206,23.7061 21.4206,25.0394 19,26.5C 18.1786,23.4459 18.3452,20.4459 19.5,17.5C 22.0591,16.3924 24.3924,15.0591 26.5,13.5 Z"/></g>
</svg>
