<?xml version="1.0" encoding="UTF-8"?>
<!DOCTYPE svg PUBLIC "-//W3C//DTD SVG 1.1//EN" "http://www.w3.org/Graphics/SVG/1.1/DTD/svg11.dtd">
<svg xmlns="http://www.w3.org/2000/svg" version="1.1" width="50px" height="50px" style="shape-rendering:geometricPrecision; text-rendering:geometricPrecision; image-rendering:optimizeQuality; fill-rule:evenodd; clip-rule:evenodd" xmlns:xlink="http://www.w3.org/1999/xlink">
<g><path style="opacity:0.639" fill="#fff" d="M 49.5,15.5 C 49.5,16.8333 49.5,18.1667 49.5,19.5C 41.2555,22.6931 32.9222,25.6931 24.5,28.5C 16.0778,25.6931 7.74446,22.6931 -0.5,19.5C -0.5,18.1667 -0.5,16.8333 -0.5,15.5C 7.74446,12.3069 16.0778,9.30695 24.5,6.5C 32.9222,9.30695 41.2555,12.3069 49.5,15.5 Z M 22.5,9.5 C 29.7923,11.3093 36.7923,13.976 43.5,17.5C 36.8184,21.1874 29.8184,23.6874 22.5,25C 16.8246,22.4951 11.158,19.9951 5.5,17.5C 11.3695,15.063 17.0362,12.3963 22.5,9.5 Z"/></g>
<g><path style="opacity:0.636" fill="#fff" d="M -0.5,21.5 C 8.01481,23.8947 16.3481,26.8947 24.5,30.5C 32.6519,26.8947 40.9852,23.8947 49.5,21.5C 49.5,22.5 49.5,23.5 49.5,24.5C 41.2555,27.6931 32.9222,30.6931 24.5,33.5C 16.0778,30.6931 7.74446,27.6931 -0.5,24.5C -0.5,23.5 -0.5,22.5 -0.5,21.5 Z"/></g>
<g><path style="opacity:0.636" fill="#fff" d="M -0.5,26.5 C 8.01481,28.8947 16.3481,31.8947 24.5,35.5C 32.6519,31.8947 40.9852,28.8947 49.5,26.5C 49.5,27.5 49.5,28.5 49.5,29.5C 41.2555,32.6931 32.9222,35.6931 24.5,38.5C 16.0778,35.6931 7.74446,32.6931 -0.5,29.5C -0.5,28.5 -0.5,27.5 -0.5,26.5 Z"/></g>
<g><path style="opacity:0.636" fill="#fff" d="M -0.5,31.5 C 8.01481,33.8947 16.3481,36.8947 24.5,40.5C 32.6519,36.8947 40.9852,33.8947 49.5,31.5C 49.5,32.5 49.5,33.5 49.5,34.5C 41.2555,37.6931 32.9222,40.6931 24.5,43.5C 16.0778,40.6931 7.74446,37.6931 -0.5,34.5C -0.5,33.5 -0.5,32.5 -0.5,31.5 Z"/></g>
</svg>
